<?xml version="1.0" standalone="no"?><!DOCTYPE svg PUBLIC "-//W3C//DTD SVG 1.1//EN" "http://www.w3.org/Graphics/SVG/1.1/DTD/svg11.dtd"><svg t="1615606114985" class="icon" viewBox="0 0 1024 1024" version="1.1" xmlns="http://www.w3.org/2000/svg" p-id="1660" xmlns:xlink="http://www.w3.org/1999/xlink" width="200" height="200"><defs><style type="text/css"></style></defs><path d="M0 512c0 282.7776 229.2224 512 512 512s512-229.2224 512-512S794.7776 0 512 0 0 229.2224 0 512z" fill="#d6d6fb" p-id="1661"></path><path d="M672.5376 626.1248v-54.2464c0-4.9664 4.0448-8.2944 10.24-8.2944s10.24 3.328 10.24 8.2944l0.2048 53.4784h20.48V309.6064c-1.8176-19.9168-18.2016-36.1984-38.2208-36.1984H356.4544a36.6336 36.6336 0 0 0-36.864 36.352v404.1984a36.8384 36.8384 0 0 0 36.864 36.608h320.7168a36.6336 36.6336 0 0 0 36.4288-36.608l0.1536-67.0976-20.6848-0.1792c-16.1536 0.1536-19.5072-1.2544-20.6336-9.8816-0.3584-2.7136 0.1536-5.8112 0-10.4448z m-259.5328 0.2816a31.2576 31.2576 0 1 1 31.104-31.2576 31.9744 31.9744 0 0 1-31.104 31.2576z m0-104.064a31.2576 31.2576 0 1 1 31.104-31.232A31.9744 31.9744 0 0 1 413.0048 522.24z m48.64-148.9408l-38.7072 41.9584a8.4224 8.4224 0 0 1-12.8 0l-25.8048-27.9808a10.24 10.24 0 0 1 0-13.9776 8.4224 8.4224 0 0 1 12.8 0l20.2752 21.9904 31.3344-35.9936a8.4736 8.4736 0 0 1 12.8 0 10.24 10.24 0 0 1 0 14.0032z m70.7072 231.8592H502.016c-8.3456 0-16.6912-5.12-16.6912-10.4192s8.3456-10.4192 16.6912-10.4192h30.4384c7.68 0 15.5648 5.12 15.5648 10.4192s-7.68 10.4192-15.5648 10.4192zM636.5184 501.76h-136.3968c-7.3728 0-14.7456-5.12-14.7456-10.4192s7.3728-10.4192 14.7456-10.4192h136.3968c7.3728 0 14.7456 5.12 14.7456 10.4192s-7.3728 10.4192-14.7456 10.4192z m0-103.7312h-136.3968c-7.3728 0-14.7456-5.12-14.7456-10.4192s7.3728-10.4192 14.7456-10.4192h136.3968c7.3728 0 14.7456 5.12 14.7456 10.4192s-7.3728 10.4192-14.7456 10.4192z" fill="#FFFFFF" p-id="1662"></path><path d="M682.4448 521.9072a114.0224 114.0224 0 1 0 114.048 114.0224 114.3808 114.3808 0 0 0-114.048-114.0224z m62.0544 124.16h-61.7984a9.728 9.728 0 0 1-10.24-10.24v-60.9536c0-6.8864 4.096-11.4944 10.24-11.4944s10.24 4.608 10.24 11.4944v50.4832h51.5584a9.7792 9.7792 0 0 1 10.24 10.24 11.0592 11.0592 0 0 1-10.24 10.24z" fill="#5796FF" p-id="1663"></path></svg>