<?xml version="1.0" standalone="no"?><!DOCTYPE svg PUBLIC "-//W3C//DTD SVG 1.1//EN" "http://www.w3.org/Graphics/SVG/1.1/DTD/svg11.dtd"><svg t="1615606127484" class="icon" viewBox="0 0 1024 1024" version="1.1" xmlns="http://www.w3.org/2000/svg" p-id="2231" xmlns:xlink="http://www.w3.org/1999/xlink" width="200" height="200"><defs><style type="text/css"></style></defs><path d="M512 512m-512 0a512 512 0 1 0 1024 0 512 512 0 1 0-1024 0Z" fill="#F6D7BD" p-id="2232"></path><path d="M662.10541378 676.28761361c-31.94132723-27.42310408-67.23994557-47.9119913-109.25314615-54.09317097-23.37552918-3.45142077-46.18628137-1.47469814-68.18124206 7.87551335-21.4301837 9.09919971-39.6285822 23.15589363-57.26220371 38.15388497-16.75507751 14.2763304-33.19638982 28.92917845-50.61037395 42.29558861-16.12754621 12.42511366-34.51420491 19.67309662-55.31685732 17.69637399-5.77328482-0.5647779-11.92308917-1.06680238-17.00609021-3.5455504-7.62450156-3.67105631-12.98989155-11.45244092-8.06377264-22.93625718 4.20445796-9.85223689 10.98179268-17.66499775 18.44941117-25.03848661 2.41599463-2.38461747 4.36134009-2.82388947 7.65587782-2.13360569a30.90590109 30.90590109 0 0 0 27.14071513-6.55769918c68.65189031-57.67009855 137.24102812-115.40294957 205.86154219-173.10442436l24.78747482-20.89678206c-40.60125493-18.35528154-69.59318679-47.94336755-87.6033269-89.48591897-1.12955579 1.28643885-1.88259297 2.10222851-2.57287676 2.94939537l-187.31800135 232.37472693a30.3411232 30.3411232 0 0 0-6.71458224 16.62957071c-0.3765186 4.0475749 0.9412965 8.7226811-0.62753038 12.07997222-1.69433368 3.54555042-5.93016789 5.86741447-9.03644629 8.72268018a18.73180014 18.73180014 0 0 0-1.16093295 1.19230919c-12.01721882 13.17815085-21.33605406 27.70549303-23.94030707 46.12352797-2.76113606 19.79860252 10.98179268 44.96259594 29.49395636 51.77130692a101.66002083 101.66002083 0 0 0 61.1215193 3.51417325c19.01418909-4.7378587 35.92614964-14.05669394 51.14377561-26.32492454 17.28847916-13.96256427 33.88667361-28.86642597 50.86138666-43.29963851 13.36641015-11.35831127 27.36035159-21.77532515 43.58202745-28.61541327 24.63059178-10.35426138 49.35531227-8.00102016 73.92315157 0 26.67006689 8.69130394 49.57494875 24.00306048 70.59723669 42.45247168 16.00204032 14.02531769 30.27837071 29.68221566 43.23688509 46.68830586a16.40993515 16.40993515 0 0 0 27.48585749-1.72571085c3.67105631-6.18118058 2.88664287-13.80568214-2.29048783-20.83402866a317.53068205 317.53068205 0 0 0-48.38263954-51.92818995zM730.16114995 338.4876808c-9.09919971-51.45754172-50.07697322-94.97681577-99.6832982-105.98998469-25.10124001-5.58502553-49.26118262-3.29453771-72.00918142 9.56984703-2.10222851 1.19230919-3.26316147 2.19635817-2.69838358 5.08300104 15.81378102 82.61445551 78.5041272 146.62261678 159.04773043 162.34226814 2.51012427 0.50202449 3.57692666-0.21963554 4.70648244-2.32186497a92.81183383 92.81183383 0 0 0 12.0172179-49.26118263c-0.439272-6.49494577-0.28238894-13.0840212-1.38056757-19.45346109zM631.60740753 448.30560393A87.3523142 87.3523142 0 0 0 668.88274851 434.87644129c-88.35636409-27.51723373-146.12059136-85.21870852-173.51232013-173.85746155-10.60527408 17.257102-15.06074383 35.76926658-14.74697771 55.41098605 0.439272 26.4190551 8.31478534 50.67312736 23.78342402 71.94642893 31.37654933 43.14275545 72.73084238 65.89075425 127.20053284 59.99196261z" fill="#FFFFFF" p-id="2233"></path></svg>