<?xml version="1.0" standalone="no"?><!DOCTYPE svg PUBLIC "-//W3C//DTD SVG 1.1//EN" "http://www.w3.org/Graphics/SVG/1.1/DTD/svg11.dtd"><svg t="1615606118458" class="icon" viewBox="0 0 1024 1024" version="1.1" xmlns="http://www.w3.org/2000/svg" p-id="1802" xmlns:xlink="http://www.w3.org/1999/xlink" width="200" height="200"><defs><style type="text/css"></style></defs><path d="M525.535805 546.665211H493.329749a34.998488 34.998488 0 0 0-34.719244 27.272758c-2.513189 29.785947 0 62.085084 0 94.291139h106.577842c0-29.785947 2.513189-59.571894 0-89.357842-2.420108-22.246379-17.313082-32.206055-39.652542-32.206055z" fill="#4BB4BF" p-id="1803"></path><path d="M513.156021 2.327027A510.828993 510.828993 0 1 0 1023.891933 513.156021 510.735912 510.735912 0 0 0 513.156021 2.327027zM689.358514 690.661649A37.232434 37.232434 0 0 1 679.491919 713.00111a39.931785 39.931785 0 0 1-24.85265 9.959676H371.579691c-32.299136-9.959676-34.719245-24.85265-34.719245-49.612219V544.245103a20.105514 20.105514 0 0 1 9.959676-19.826271c24.85265-19.826271 47.19211-42.165731 71.951679-62.085084 32.299136-27.272758 62.085084-54.638597 94.291138-79.398165h2.51319c57.058705 47.19211 114.210491 96.804328 168.756006 146.416546a18.616217 18.616217 0 0 1 4.933298 12.379785z m19.826271-168.756006c-64.505192-54.638597-129.103465-111.697302-196.121846-166.335899-27.272758 22.33946-52.125407 44.678921-79.398165 67.018381-39.745623 32.299136-76.978057 67.018381-116.630599 99.317518a34.440001 34.440001 0 0 1-52.125408-7.446487v-7.446487c4.28173-5.677946 232.702712-199.193521 243.220875-205.988441h4.933297c12.379784 7.446487 67.018381 49.612218 84.424544 64.505192v-29.785947a16.382271 16.382271 0 0 1 14.892974-17.406163h9.959676c22.33946 0 27.272758 4.933297 27.272758 24.85265V400.248665a17.685406 17.685406 0 0 0 7.446487 14.892973c24.85265 22.33946 91.871031 81.911355 99.317517 89.357842 4.933297 4.933297 4.933297 7.446487 4.933298 9.959676a34.440001 34.440001 0 0 1-52.125408 7.446487z" fill="#4BB4BF" p-id="1804"></path></svg>