<?xml version="1.0" standalone="no"?><!DOCTYPE svg PUBLIC "-//W3C//DTD SVG 1.1//EN" "http://www.w3.org/Graphics/SVG/1.1/DTD/svg11.dtd"><svg t="1615606254721" class="icon" viewBox="0 0 1024 1024" version="1.1" xmlns="http://www.w3.org/2000/svg" p-id="1226" xmlns:xlink="http://www.w3.org/1999/xlink" width="200" height="200"><defs><style type="text/css"></style></defs><path d="M513.9 506.28888889m-507.1 0a507.1 507.1 0 1 0 1014.2 0 507.1 507.1 0 1 0-1014.2 0Z" fill="#F9E994" p-id="1227"></path><path d="M513.9 484.9c-36.5 0-66.1 29.6-66.1 66.1 0 36.5 29.6 66.1 66.1 66.1 36.5 0 66.1-29.6 66.1-66.1 0.1-36.5-29.5-66.1-66.1-66.1z m0 0" fill="#FFFFFF" p-id="1228"></path><path d="M659.1 370.08888889v318.7H401.7c-20.3 0-36.8-16.5-36.8-36.8 0-20.3 16.5-36.8 36.8-36.8h232.9V320.98888889H389.4c-27 0-49 22.1-49 49v294.2c0 27 22.1 49 49 49h294.2V370.08888889h-24.5zM413.9 639.78888889h220.7v24.5H413.9v-24.5z m0 0" fill="#FFFFFF" p-id="1229"></path></svg>