<?xml version="1.0" standalone="no"?><!DOCTYPE svg PUBLIC "-//W3C//DTD SVG 1.1//EN" "http://www.w3.org/Graphics/SVG/1.1/DTD/svg11.dtd"><svg t="1615606083165" class="icon" viewBox="0 0 1024 1024" version="1.1" xmlns="http://www.w3.org/2000/svg" p-id="1226" xmlns:xlink="http://www.w3.org/1999/xlink" width="200" height="200"><defs><style type="text/css"></style></defs><path d="M512 512m-512 0a512 512 0 1 0 1024 0 512 512 0 1 0-1024 0Z" fill="#FF5252" p-id="1227"></path><path d="M395.58124971 338.08333363h21.43125c5.92499971 0 10.70624971-5.24999971 10.70625058-11.71875058 0-19.42499971 14.4-35.15625 32.15624942-35.15625h107.13750029c17.75625029 0 32.13749971 15.75 32.13749971 35.15625 0 6.46875 4.79999971 11.71874971 10.72500029 11.71875058h21.43125c5.90625 0 10.6875-5.24999971 10.6875-11.71875058v-23.43749942c0-32.36249971-23.9625-58.59375029-53.55-58.59375029h-150.00000029c-29.5875 0-53.56874971 26.25000029-53.56874971 58.59375029v23.43749942c0 6.46875 4.78125 11.71874971 10.70624971 11.71875058zM605.75000029 550.20208363c0 9.71250029-8.38125 17.56874971-18.75000058 17.56874971h-31.25624942c-6.90000029 0-12.4875 5.24999971-12.4875 11.71874971v41.02500058c0 9.71250029-8.38125 17.56874971-18.75000058 17.56874971h-24.99374971c-10.35 0-18.74999971-7.85625029-18.74999971-17.56874971v-41.02500058c0-6.46875-5.625-11.71874971-12.50625058-11.71874971H437.00000029c-10.38750029 0-18.76875029-7.85625029-18.76875029-17.56874971v-23.43750029c0-9.69374971 8.38125-17.58750029 18.74999971-17.58750029h31.25625029c6.90000029 0 12.4875-5.24999971 12.4875-11.71874971v-29.28750029c0-9.69374971 8.41875029-17.58750029 18.76875029-17.58749942h25.01249942c10.35 0 18.73125 7.875 18.73125 17.58749942V497.45833334c0 6.46875 5.58749971 11.71874971 12.4875 11.71874971h31.275c10.35 0 18.73125 7.875 18.73125 17.58750029v23.43750029zM669.14375029 375.58333305H354.85624971C327.74374971 375.58333305 305.74999971 399.95833363 305.74999971 430.01458334v228.63750029C305.74999971 688.70833334 327.74374971 713.08333305 354.85624971 713.08333305h314.28750058C696.25625029 713.08333305 718.25000029 688.70833334 718.25000029 658.65208363V430.01458334C718.25000029 399.95833363 696.25625029 375.58333305 669.14375029 375.58333305z" fill="#FFFFFF" p-id="1228"></path></svg>