<?xml version="1.0" standalone="no"?><!DOCTYPE svg PUBLIC "-//W3C//DTD SVG 1.1//EN" "http://www.w3.org/Graphics/SVG/1.1/DTD/svg11.dtd"><svg t="1615606205685" class="icon" viewBox="0 0 1024 1024" version="1.1" xmlns="http://www.w3.org/2000/svg" p-id="1660" xmlns:xlink="http://www.w3.org/1999/xlink" width="200" height="200"><defs><style type="text/css"></style></defs><path d="M512 1021.74542191C230.47488562 1021.74542191 2.25457809 793.52511438 2.25457809 512S230.47488562 2.25457809 512 2.25457809 1021.74542191 230.47488562 1021.74542191 512 793.52511438 1021.74542191 512 1021.74542191z" fill="#B6DA00" p-id="1661"></path><path d="M460.4707683 514.80189323c49.53803886-9.51505789 78.36766959-43.09510671 78.36766957-60.9589536 0-29.89634097-6.31492628-75.72222756-18.94477978-137.49187969a17.38027065 17.38027065 0 0 0-12.80052643-13.3694396 8.5336846 8.5336846 0 0 0-10.59599172 8.24922847v100.27079287c0 5.83135097-0.88181371 21.16353717-21.19198343 21.1635381-19.6274743 0-21.14931451-15.31796353-21.1493145-21.17776076v-100.58369434a21.17776076 21.17776076 0 0 0-42.35552061 0v100.58369434c0 5.85979632-0.88181371 21.19198343-21.19198344 21.19198342-19.6274743 0-21.16353717-15.33218621-21.1635381-21.19198342v-100.24234754a8.5336846 8.5336846 0 0 0-10.58176813-8.26345114c-6.49982282 1.6213998-11.47780542 6.82694787-12.82897268 13.3694396C333.40420555 377.53757807 327.10350193 423.34924107 327.10350193 453.84293963c0 17.02470027 28.09004463 51.37278052 78.36766959 60.97317626l-14.36503558 186.60323481a42.35552062 42.35552062 0 1 0 83.70122258 0l-14.33659023-186.60323481zM708.23207498 559.7317416V475.02070038h-0.02844534c-1.10937916-90.14415381-39.9376431-155.98153041-66.49162486-180.28830852a21.19198343 21.19198343 0 0 0-39.35450819 10.90889409v402.3063329h1.83474166a31.75952889 31.75952889 0 1 0 59.89224245 1e-8h1.80629633v-105.88880199s42.34129793-3.74059852 42.34129795-42.3555206v0.02844533z" fill="#FFFFFF" p-id="1662"></path></svg>