<?xml version="1.0" standalone="no"?><!DOCTYPE svg PUBLIC "-//W3C//DTD SVG 1.1//EN" "http://www.w3.org/Graphics/SVG/1.1/DTD/svg11.dtd"><svg t="1615606228857" class="icon" viewBox="0 0 1024 1024" version="1.1" xmlns="http://www.w3.org/2000/svg" p-id="2662" xmlns:xlink="http://www.w3.org/1999/xlink" width="200" height="200"><defs><style type="text/css"></style></defs><path d="M512 512m-512 0a512 512 0 1 0 1024 0 512 512 0 1 0-1024 0Z" fill="#EDD3F9" p-id="2663"></path><path d="M277.11999969 301.92000031a22.48000031 22.48000031 0 1 1 42.6-14.32000031l105.6 313.68a22.48000031 22.48000031 0 0 1-42.6 14.32000031l-105.6-313.68z m220.60000031 393.87999938a22.48000031 22.48000031 0 1 1 0-45h64.27999969a22.48000031 22.48000031 0 0 1 0 45h-64.27999969z m224.88-172.32l-28.39999969 106.68a74.95999969 74.95999969 0 1 1-39.68000062-25.71999938l18.6-69.80000062h-183.55999969a22.48000031 22.48000031 0 1 1 0-45h195.52000031l11.43999938-43.08a22.48000031 22.48000031 0 0 0-22.39999969-24.39999938H403.56000031a22.48000031 22.48000031 0 1 1 0-44.96000062h270.55999969a67.48000031 67.48000031 0 0 1 66.79999969 76.64000062l-0.15999938 1.35999938L725.67999969 512v0.16000031c0 4.15999969-1.12000031 8.04-3.07999969 11.35999969zM425.84 752a74.95999969 74.95999969 0 1 1 0-149.92000031 74.95999969 74.95999969 0 0 1 0 149.92000031z m0-44.95999969a30 30 0 1 0 0-60 30 30 0 0 0 0 60z m209.88 0a30 30 0 1 0 0-60 30 30 0 0 0 0 60z" fill="#FFFFFF" p-id="2664"></path></svg>