<?xml version="1.0" standalone="no"?><!DOCTYPE svg PUBLIC "-//W3C//DTD SVG 1.1//EN" "http://www.w3.org/Graphics/SVG/1.1/DTD/svg11.dtd"><svg t="1615606108250" class="icon" viewBox="0 0 1041 1024" version="1.1" xmlns="http://www.w3.org/2000/svg" p-id="1377" xmlns:xlink="http://www.w3.org/1999/xlink" width="203.3203125" height="200"><defs><style type="text/css"></style></defs><path d="M7.3216 512C7.3216 229.2224 236.561067 0 519.3216 0c282.7776 0 512 229.2224 512 512 0 282.760533-229.2224 512-512 512C236.561067 1024 7.3216 794.760533 7.3216 512" fill="#F2BEBD" p-id="1378"></path><path d="M609.74079967 618.97386667a242.414933 242.414933 0 0 0-56.132266 139.776l-0.238934 3.498667 0.853334 10.257066 5.597866-0.648533a266.9056 266.9056 0 0 0 140.151467-62.754133l4.744533-4.096-90.862933-90.897067-4.096 4.864zM761.05386667 534.06719967a237.960533 237.960533 0 0 0-139.776 56.251734l-4.864 4.113066 90.897067 90.914134 4.113066-4.778667a266.632533 266.632533 0 0 0 62.754134-140.2368l0.631466-5.4272-1.6384-0.221867c-3.822933-0.512-8.362667-0.836267-8.362666-0.836266h-0.119467l-3.6352 0.221866zM336.45226667 705.57013367l4.727467 4.113066c47.616 41.403733 111.752533 65.723733 175.9744 66.730667l1.706666 0.034133v-15.291733l0.0512-1.194667c3.498667-59.016533 26.4704-115.848533 64.733867-160.017066l3.584-4.130134-70.519467-70.485333-180.258133 180.241067zM536.35413367 505.66826667l70.485333 70.485333 4.113067-3.584a265.045333 265.045333 0 0 1 160-65.058133l1.28-0.1024h15.138133v-1.706667c-1.024-64.017067-25.309867-128-66.628267-175.547733l-4.130133-4.727467-180.258133 180.224zM430.19946667 446.24213367c-41.6768 37.034667-92.740267 58.333867-147.6608 61.525333l-1.4336 0.341333-13.738667 0.512 0.034134 1.536c0.9216 61.730133 23.176533 121.0368 62.6688 167.0144l1.0752 1.245867 6.826666-6.724267 159.709867-163.584-63.6928-65.245866-3.7888 3.3792zM515.53279967 259.80586667c-1.3312 59.255467-22.6816 116.258133-60.125866 160.546133l-3.293867 3.8912 63.709867 65.245867 166.331733-170.376533-4.437333-3.874134c-44.168533-38.741333-98.3552-59.767467-156.672-60.8256l-5.393067-0.1024-0.119467 5.495467zM320.81919967 338.96106667c-29.832533 36.4544-48.708267 80.964267-54.613333 128.682667l-0.597333 5.512533 8.789333 0.443733 3.2256-0.2048c45.141333-3.0208 87.210667-20.872533 121.6512-51.643733l4.215467-3.754667-79.086934-83.4048-3.584 4.369067zM467.62666667 255.21493367c-46.592 6.417067-89.770667 27.221333-124.842667 60.194133l-1.143466 1.0752 6.126933 6.638933 72.840533 76.8 3.584-4.437333c28.5696-35.669333 45.909333-81.2032 48.8448-128.221867 0.136533-1.706667 0-5.290667-0.3584-11.042133l-0.085333-1.621333-4.9664 0.6144z" fill="#ffffff" p-id="1379"></path><path d="M487.10400031 262.41600031a250.01599969 250.01599969 0 0 0-134.48000062 61.50399938l-1.21599938 1.08800062 6.55999969 6.78399938 78.48 78.48 3.84-4.54399969a227.31199969 227.31199969 0 0 0 52.63999969-131.00800031 97.872 97.872 0 0 0-0.384-11.29599938l-0.096-1.632-5.34399938 0.624z m-158.12800031 85.56799969a250.11199969 250.11199969 0 0 0-58.83199969 131.45599969l-0.65600062 5.63200031 9.47200031 0.44800031 3.48799969-0.20800031a222.88000031 222.88000031 0 0 0 131.02400062-52.752l4.56-3.84-85.2-85.2-3.85600031 4.464z m190.24000031-82.39999969c-1.344 58.76800031-23.04 115.296-61.056 159.18399938l-3.36 3.87200062 64.71999938 64.704 168.94400062-168.94400062-4.512-3.85599938c-44.84800031-38.41600031-99.888-59.26399969-159.13600031-60.32000062l-5.45599969-0.096-0.12800062 5.45600062z m18.72 246.192l66.07999969 66.07999969 3.87199969-3.34399969a248.38399969 248.38399969 0 0 1 150-61.008l1.2-0.096h14.19200062l-0.01600031-1.60000031c-0.96-60.01600031-23.712-120-62.448-164.57599969l-3.87199969-4.43200031-168.99200062 168.97600031z m-105.39200062-61.344a248.23999969 248.23999969 0 0 1-149.98399969 61.008l-1.45600031 0.35199938-13.95199969 0.49600031 0.03199969 1.536a256.67200031 256.67200031 0 0 0 63.66400031 165.6l1.08799969 1.23199969 6.912-6.65599969 162.24-162.22399969-64.68799969-64.68800062-3.85600031 3.34400062z m325.44 89.19999938a222.99199969 222.99199969 0 0 0-131.04 52.752l-4.54399969 3.84 85.21600031 85.21600031 3.84-4.464a250.14400031 250.14400031 0 0 0 58.848-131.48800031l0.59199938-5.07199969-1.51999969-0.20800031c-3.6-0.48-7.872-0.78400031-7.872-0.78399938l-0.096-0.01600031-3.408 0.22399969z m-157.85599969 79.60000031a227.328 227.328 0 0 0-52.63999969 131.02399969l-0.192 3.29600062 0.78399938 9.61599938 5.26400062-0.60799969a250.39999969 250.39999969 0 0 0 131.35999969-58.81600031l4.464-3.87199969-85.18399969-85.18399969-3.85600031 4.54399969z m-249.6 79.95199969l4.44799969 3.87200062c44.62399969 38.80000031 104.76799969 61.61599969 164.96000062 62.55999938l1.59999938 0.01600031v-14.32000031l0.06400031-1.152c3.264-55.296 24.79999969-108.576 60.672-150l3.34399969-3.85599938-66.096-66.08000062-168.99199969 168.96z m169.69600031 91.85600062c-74.4 0-144.35200031-28.97599969-196.96000031-81.6a276.79999969 276.79999969 0 0 1-81.6-196.97600062c0-74.38399969 28.992-144.31999969 81.6-196.944a276.624 276.624 0 0 1 196.96000031-81.58399969c74.43199969 0 144.384 28.97599969 196.95999938 81.58399969a276.65599969 276.65599969 0 0 1 81.58400062 196.944c0 74.43199969-28.97599969 144.384-81.6 196.97600062a276.64000031 276.64000031 0 0 1-196.96000031 81.6z" fill="#DD8C8A" p-id="1380"></path></svg>