<?xml version="1.0" standalone="no"?><!DOCTYPE svg PUBLIC "-//W3C//DTD SVG 1.1//EN" "http://www.w3.org/Graphics/SVG/1.1/DTD/svg11.dtd"><svg t="1615606221397" class="icon" viewBox="0 0 1024 1024" version="1.1" xmlns="http://www.w3.org/2000/svg" p-id="2377" xmlns:xlink="http://www.w3.org/1999/xlink" width="200" height="200"><defs><style type="text/css"></style></defs><path d="M512 512m-512 0a512 512 0 1 0 1024 0 512 512 0 1 0-1024 0Z" fill="#6DAEFF" p-id="2378"></path><path d="M460.22991094 293.79166694c34.15178567-5.3537948 68.93638386-5.3537948 103.09821379 0 24.07700858 5.0122771 48.11383933 9.0200896 70.65401824 15.56919636 16.77455337 4.43973175 30.19419608 17.67857136 35.54799088 34.92522261 9.74330365 28.70758933 19.96875027 57.23437473 30.76674142 85.56026853 1.90848175 4.82142892 7.63392864 11.80245575 11.02901798 11.33035703 19.0647323-3.39508933 37.21540155 9.79352655 40.85156195 29.6116073a34.29241094 34.29241094 0 0 1 0 15.56919634l-27.37165128 7.74441954c1.66741067 9.9944198 2.81249973 20.06919608 3.33482135 30.15401742v139.06808047a40.56026798 40.56026798 0 0 1-8.16629452 23.1227677c-25.3125 5.1127229-51.35825913 5.63504452-76.91183102 1.52678623-17.77901797-11.80245575-6.72991067-31.62053567-12.47544609-47.671875H396.9888396c-4.5904021 17.05580392-7.21205365 45.67299087-12.51562555 47.671875a218.56138358 218.56138358 0 0 1-78.83035702 0 46.64732108 46.64732108 0 0 1-8.63839243-26.6082594c-1.43638385-20.06919608-1.43638385-39.12388413-1.43638384-58.71093723 0-36.4118302 0-72.81361615 1.42633876-109.50669607l-25.41294662-7.0714292a29.77232108 29.77232108 0 0 1 0-12.32477654c7.21205365-20.10937473 16.81473203-35.63839326 41.56473258-33.34821434 2.86272345 0 8.45758933-6.01674087 10.125-10.546875a705.93750027 705.93750027 0 0 0 24.03682992-68.56473175c9.22098202-34.39285674 37.96875-59.1428573 72.0904021-62.015625 13.22879453-2.4810271 26.88950913-4.24888357 40.1283479-6.4888396l0.7131698 1.0044646zM354.07812473 448.91108591a726.56919663 726.56919663 0 0 0 314.296875 0c-8.87946433-27.90401797-17.7689729-52.734375-24.02678567-77.87611532-3.81696433-19.68749973-20.5915177-33.72991067-39.88727683-33.34821432-49.7310271-2.29017893-99.70312527-4.0078125-149.43415156-4.53013413a205.12165155 205.12165155 0 0 0-48.06361642 7.73437528 27.66294608 27.66294608 0 0 0-17.57812473 12.56584762c-13.42968777 30.43526798-23.55468777 61.82477683-35.30691979 95.45424087z m20.45089324 118.52678652c8.5982146 0.43191925 17.19642837-0.04017865 25.69419636-1.52678624a24.15736587 24.15736587 0 0 0 15.56919634-12.27455365c1.20535702-3.77678567-4.28906223-13.04799142-9.11049115-15.33816952a555.11718777 555.11718777 0 0 0-60.05691952-25.13169608c-10.0747771-3.48549087-21.63616095-2.71205393-24.02678567 12.04352683-4.82142892 21.87723202 0 33.92075885 15.56919634 37.45647263 12.234375 2.4810271 24.07700858 3.01339297 37.50669635 4.2488844l-1.14508905 0.52232162z m277.03124973-1e-8a323.95982135 323.95982135 0 0 0 37.74776825-5.0625c18.0100448-4.24888357 14.14285675-19.58705392 13.66071378-32.86607218-0.48214297-13.32924115-7.21205365-19.58705392-17.0558031-16.57366012a512.14620575 512.14620575 0 0 0-72.09040211 28.60714269c-10.55691925 5.26339325-6.72991067 19.828125 5.3035719 22.60044609 10.74776826 1.67745576 21.54575858 2.67187527 32.44419635 3.01339297v0.28125056z" fill="#FFFFFF" fill-opacity=".84" p-id="2379"></path></svg>