<?xml version="1.0" standalone="no"?><!DOCTYPE svg PUBLIC "-//W3C//DTD SVG 1.1//EN" "http://www.w3.org/Graphics/SVG/1.1/DTD/svg11.dtd"><svg t="1615606262947" class="icon" viewBox="0 0 1024 1024" version="1.1" xmlns="http://www.w3.org/2000/svg" p-id="1513" xmlns:xlink="http://www.w3.org/1999/xlink" width="200" height="200"><defs><style type="text/css"></style></defs><path d="M512 0a512 512 0 1 0 512 512A512 512 0 0 0 512 0z m0 983.04a471.04 471.04 0 1 1 471.04-471.04 471.04 471.04 0 0 1-471.04 471.04z" fill="#6FD7FC" p-id="1514"></path><path d="M512 22.66453333a489.33546667 489.33546667 0 1 0 489.33546667 489.33546667 489.33546667 489.33546667 0 0 0-489.33546667-489.33546667z m0 757.30488889a215.22993266 215.22993266 0 0 1-215.22993266-215.22993265c0-131.7322149 129.79817472-249.77857081 196.69732239-313.32227642a26.8746149 26.8746149 0 0 1 37.08852224 0.07767268c68.53803463 65.19812551 196.67402183 181.09295843 196.67402069 313.24460374A215.22993266 215.22993266 0 0 1 512 779.96942222z" fill="#6FD7FC" p-id="1515"></path><path d="M584.07212373 554.1216859L504.15509845 664.56392477a7.44100637 7.44100637 0 0 1-6.81962837 2.98261617A9.21193472 9.21193472 0 0 1 488.69831111 658.02391666v-69.54777373c0-4.87005298-4.47392427-14.31500459-9.32067556-14.31500458h-32.28060672c-3.30107221 0-6.33029177 0.90876587-7.83713393-2.02724694a6.56330866 6.56330866 0 0 1 0.66021376-7.76722887l79.92479289-111.20342699a7.76723001 7.76723001 0 0 1 6.82739484-3.3632108 8.87794347 8.87794347 0 0 1 8.64492658 9.17309895v69.54000611a17.35975822 17.35975822 0 0 0 2.83503957 9.11872797c1.65441991 1.65441991 4.14770062 5.43706112 6.48563599 5.43706112h32.28837432c7.14585088 0 11.31685319 5.21957831 7.14585088 11.052767z" fill="#6FD7FC" p-id="1516"></path></svg>