<?xml version="1.0" standalone="no"?><!DOCTYPE svg PUBLIC "-//W3C//DTD SVG 1.1//EN" "http://www.w3.org/Graphics/SVG/1.1/DTD/svg11.dtd"><svg t="1615531653591" class="icon" viewBox="0 0 1024 1024" version="1.1" xmlns="http://www.w3.org/2000/svg" p-id="1757" xmlns:xlink="http://www.w3.org/1999/xlink" width="200" height="200"><defs><style type="text/css"></style></defs><path d="M512 512m-512 0a512 512 0 1 0 1024 0 512 512 0 1 0-1024 0Z" fill="#5796FF" p-id="1758"></path><path d="M307.2 486.4m38.4 0l332.8 0q38.4 0 38.4 38.4l0 0q0 38.4-38.4 38.4l-332.8 0q-38.4 0-38.4-38.4l0 0q0-38.4 38.4-38.4Z" fill="#FFFFFF" p-id="1759"></path><path d="M550.4 320m0 38.4l0 332.8q0 38.4-38.4 38.4l0 0q-38.4 0-38.4-38.4l0-332.8q0-38.4 38.4-38.4l0 0q38.4 0 38.4 38.4Z" fill="#FFFFFF" p-id="1760"></path></svg>